<svg width="21" height="21" viewBox="0 0 21 21" fill="none" xmlns="http://www.w3.org/2000/svg">
<path fill-rule="evenodd" clip-rule="evenodd" d="M0.0518494 9.10612V7.53851C0.0884353 7.518 0.0787556 7.48026 0.0858103 7.44876C0.57931 5.30184 1.92511 4.01133 4.0471 3.49617C4.23298 3.45122 4.42772 3.45565 4.60852 3.38904H5.6536C5.67739 3.43399 5.72168 3.41594 5.75696 3.41988C6.81057 3.53259 7.75901 3.90501 8.59786 4.55421C9.31383 5.1071 9.88412 5.79239 10.3924 6.53248C10.4552 6.62419 10.4852 6.62681 10.5487 6.53313C10.8396 6.10493 11.1569 5.69691 11.5101 5.31743C12.3879 4.37604 13.4307 3.72684 14.7112 3.48912C14.9034 3.45302 15.1021 3.45516 15.2887 3.38904H16.3042C16.3255 3.42677 16.3633 3.4148 16.3954 3.41857C16.6978 3.45253 16.9966 3.50831 17.2901 3.5928C19.4965 4.22674 21.0525 6.24799 20.9217 8.5365C20.8122 10.447 19.8452 11.823 18.1688 12.7066C17.3227 13.1527 16.4051 13.2791 15.4578 13.2604C14.2068 13.2361 13.1193 12.8059 12.1816 11.9851C11.5311 11.416 11.0198 10.7317 10.55 10.0137C10.4802 9.90675 10.4532 9.9202 10.3904 10.017C10.0931 10.4746 9.77386 10.918 9.4126 11.3295C8.77801 12.0524 8.04481 12.642 7.12721 12.9636C5.99272 13.3609 4.83608 13.3763 3.68944 13.0522C2.03668 12.5847 0.897099 11.5336 0.282685 9.9225C0.181295 9.65721 0.139131 9.37535 0.0518494 9.10612ZM5.2674 11.5152C6.20813 11.5543 7.00974 11.2383 7.68978 10.6058C8.39919 9.94563 8.90105 9.1286 9.41047 8.3178C9.44131 8.26908 9.43179 8.23069 9.40226 8.18524C8.96832 7.50914 8.52354 6.83944 7.93653 6.28179C6.80729 5.20833 5.4769 4.84755 3.99247 5.32169C2.75265 5.7184 1.96876 6.60089 1.78566 7.91109C1.61454 9.13254 2.09 10.1189 3.06732 10.8545C3.71783 11.3448 4.4671 11.5377 5.2674 11.5154V11.5152ZM15.6603 11.5152C16.0287 11.5247 16.3915 11.5005 16.7414 11.3953C18.0244 11.0127 18.8915 10.1988 19.1331 8.8638C19.3741 7.53408 18.8595 6.46964 17.7567 5.70954C16.5273 4.86166 14.7354 4.94501 13.482 5.87737C12.6496 6.49655 12.0835 7.33917 11.5338 8.19607C11.5016 8.24529 11.51 8.28319 11.5382 8.32814C11.9792 9.03361 12.4207 9.73858 12.9923 10.35C13.7153 11.1236 14.5843 11.5631 15.6603 11.5152ZM20.9475 16.2742C20.8988 16.4287 20.8597 16.5864 20.8007 16.7368C20.4342 17.6687 19.1236 17.9187 18.4948 17.1772C18.2808 16.9247 18.1867 16.6217 18.1507 16.2999C18.1007 15.8499 18.102 15.4033 18.2712 14.9714C18.5102 14.3651 19.0275 14.0505 19.7074 14.1018C20.327 14.1484 20.7393 14.5182 20.8866 15.1572C20.9058 15.2393 20.8962 15.329 20.9473 15.4033L20.9475 16.2742ZM18.8774 15.846C18.878 16.0935 18.8915 16.3396 18.9794 16.5741C19.046 16.7555 19.1576 16.8927 19.3556 16.9439C19.7093 17.0356 19.9996 16.8901 20.1073 16.5383C20.2456 16.0839 20.2392 15.6212 20.1085 15.1661C20.024 14.8695 19.8452 14.7394 19.5645 14.7343C19.2646 14.7284 19.0788 14.8567 18.971 15.1456C18.887 15.372 18.8787 15.6091 18.8775 15.8461L18.8774 15.846ZM15.9648 15.3308V17.3452C15.9648 17.5437 15.9648 17.5437 15.759 17.5437C15.6576 17.5437 15.5558 17.5368 15.4545 17.5457C15.3412 17.556 15.3059 17.5161 15.3072 17.401C15.3123 16.8061 15.3097 16.2115 15.3097 15.6166C15.3097 15.172 15.3129 14.7272 15.3079 14.2825C15.3065 14.1811 15.3354 14.1484 15.4373 14.1524C15.6353 14.1601 15.834 14.1606 16.032 14.1517C16.1306 14.1478 16.1769 14.183 16.2166 14.2697C16.526 14.9407 16.84 15.6091 17.1534 16.2781C17.1613 16.294 17.1721 16.3095 17.2043 16.3626V16.1897C17.2043 15.5564 17.2067 14.9231 17.2016 14.2902C17.201 14.1837 17.2253 14.144 17.3368 14.1524C17.4764 14.1625 17.6169 14.1581 17.7571 14.1537C17.8359 14.1504 17.8674 14.1729 17.8674 14.258C17.8652 15.317 17.8652 16.376 17.8674 17.4349C17.8674 17.515 17.8438 17.5465 17.7604 17.545C17.5428 17.5404 17.3251 17.5406 17.1075 17.5457C17.0182 17.5483 16.9952 17.4938 16.9657 17.4303C16.6586 16.7639 16.3501 16.098 16.0404 15.4327C16.025 15.4001 16.023 15.3566 15.9648 15.331V15.3308ZM5.21933 15.9378C5.46788 16.1377 5.56665 16.4146 5.6974 16.6715C5.82373 16.9209 5.9435 17.1741 6.07032 17.4233C6.1133 17.5086 6.12167 17.5503 6.00043 17.5457C5.79775 17.5393 5.59492 17.5393 5.39225 17.5457C5.31022 17.5483 5.27379 17.5143 5.24229 17.4431C5.10071 17.1207 4.95272 16.801 4.80786 16.4801C4.72829 16.3037 4.60212 16.1961 4.4041 16.1684C4.28679 16.1524 4.25595 16.1897 4.25808 16.3057C4.26497 16.6729 4.25661 17.04 4.26301 17.4074C4.26497 17.515 4.23676 17.5527 4.12651 17.5463C3.97212 17.5368 3.81708 17.5406 3.66254 17.545C3.58051 17.547 3.54015 17.5284 3.54015 17.4343C3.54343 16.3754 3.54211 15.3174 3.54277 14.2587C3.54277 14.2126 3.53063 14.153 3.60676 14.1555C4.12273 14.1722 4.64248 14.101 5.15321 14.2157C5.8549 14.3734 5.9435 14.9663 5.81717 15.4046C5.73448 15.6922 5.51201 15.8493 5.21916 15.9378H5.21933ZM4.2612 15.165V15.527C4.2612 15.5667 4.25989 15.6078 4.31698 15.6078C4.51435 15.6097 4.71418 15.6237 4.8976 15.5264C5.06347 15.4378 5.13221 15.2924 5.1076 15.0893C5.08791 14.9233 4.9962 14.8201 4.81163 14.7784C4.7079 14.755 4.60197 14.7428 4.49565 14.7418C4.20526 14.7386 4.26826 14.7149 4.26104 14.9623C4.25923 15.0296 4.26104 15.0975 4.26104 15.165H4.2612ZM6.39647 15.8455C6.39647 15.3328 6.39976 14.8207 6.39401 14.3081C6.3927 14.1927 6.41633 14.1466 6.54331 14.1522C6.95347 14.1689 7.36559 14.1266 7.77444 14.1768C8.55111 14.2721 8.95158 14.6779 9.03887 15.4647C9.08169 15.8468 9.06774 16.2281 8.93058 16.5952C8.71451 17.1714 8.26334 17.4369 7.68338 17.517C7.28996 17.5708 6.89194 17.5361 6.49524 17.545C6.38876 17.5476 6.39647 17.4817 6.39647 17.4118V15.8455ZM7.10982 15.8429V16.6248C7.10982 16.9595 7.10982 16.9595 7.45074 16.9452C7.87369 16.9271 8.14358 16.7101 8.24349 16.2967C8.32355 15.9672 8.31535 15.6353 8.23332 15.3079C8.15129 14.9822 7.93587 14.8002 7.59938 14.7623C7.48027 14.7489 7.35854 14.7535 7.23861 14.7427C7.13672 14.7328 7.10588 14.7722 7.10785 14.8732C7.11359 15.1963 7.10982 15.52 7.10982 15.8429ZM2.87044 17.545C2.48211 17.545 2.48211 17.545 2.3776 17.1778C2.29426 16.8856 2.29426 16.8856 1.98992 16.8856C1.7476 16.8856 1.50594 16.8901 1.26444 16.8837C1.17469 16.8812 1.13696 16.9112 1.11579 16.9972C1.07921 17.1472 1.02343 17.2925 0.987006 17.4425C0.966498 17.5258 0.92417 17.5489 0.844107 17.5463C0.684745 17.5405 0.525227 17.5405 0.365865 17.5463C0.257584 17.5509 0.247412 17.5163 0.276943 17.42C0.518443 16.6407 0.755513 15.8602 0.993896 15.0796C1.07593 14.8124 1.1619 14.5458 1.23884 14.2767C1.26312 14.1901 1.29643 14.1497 1.39454 14.153C1.64129 14.1606 1.88804 14.1579 2.13413 14.1542C2.2096 14.153 2.24307 14.1773 2.26538 14.2516C2.58754 15.3091 2.91184 16.3658 3.23827 17.422C3.26715 17.5155 3.25304 17.5553 3.14607 17.5463C3.05501 17.5386 2.96281 17.545 2.87044 17.545ZM1.74383 14.9758L1.71364 14.9778C1.58616 15.4161 1.45803 15.8539 1.33039 16.2922C1.35286 16.2986 1.36189 16.3037 1.3714 16.3037C1.52595 16.305 1.68033 16.3063 1.83488 16.3063C2.13085 16.307 2.13151 16.3063 2.05013 16.0274C1.94825 15.677 1.84571 15.3257 1.74383 14.9758ZM9.36371 15.4161C9.36371 15.0342 9.36568 14.6523 9.3619 14.2697C9.36125 14.185 9.38159 14.1484 9.47396 14.153C9.63359 14.1601 9.79388 14.1612 9.95269 14.1524C10.0597 14.1466 10.0802 14.1901 10.0795 14.2862C10.0764 14.9297 10.0777 15.5731 10.079 16.2166C10.079 16.3275 10.0823 16.4389 10.0938 16.5491C10.1245 16.8523 10.3038 17.0054 10.6332 17.0151C10.9633 17.0253 11.1499 16.8824 11.1946 16.5767C11.2104 16.4668 11.2181 16.3559 11.2178 16.2448C11.2204 15.6014 11.2216 14.9579 11.2158 14.3151C11.2152 14.194 11.2363 14.1396 11.3722 14.1517C11.521 14.1652 11.6722 14.1581 11.8215 14.1537C11.9003 14.151 11.9336 14.1722 11.9331 14.2574C11.9278 14.9924 11.9406 15.7282 11.9195 16.4627C11.9016 17.1009 11.4857 17.5143 10.846 17.5855C10.573 17.6162 10.3046 17.6008 10.0437 17.5143C9.62522 17.3745 9.38618 17.0382 9.37011 16.5472C9.35862 16.1705 9.3683 15.793 9.3683 15.4161H9.36371ZM13.6121 14.1548C13.946 14.1548 14.2792 14.1581 14.6131 14.1524C14.7074 14.151 14.7418 14.1786 14.7354 14.2747C14.7284 14.3904 14.7284 14.5064 14.7354 14.6221C14.7413 14.7144 14.7041 14.7381 14.6183 14.7354C14.4439 14.7297 14.2702 14.7367 14.0959 14.7322C14.0146 14.7297 13.9755 14.7458 13.9755 14.8413C13.9793 15.5083 13.9788 16.1756 13.9762 16.8428C13.9755 16.9317 14.0036 16.9619 14.0922 16.9586C14.2657 16.9542 14.44 16.9626 14.6139 16.9554C14.7123 16.9522 14.74 16.9901 14.7354 17.0824C14.729 17.2028 14.7305 17.324 14.7348 17.4444C14.7381 17.522 14.7061 17.5445 14.6331 17.5445C13.9561 17.5425 13.2796 17.5425 12.602 17.5445C12.5213 17.545 12.4888 17.5194 12.4919 17.4367C12.4965 17.3159 12.4963 17.195 12.4912 17.0741C12.4873 16.9869 12.5162 16.9536 12.6066 16.956C12.7854 16.9613 12.9642 16.9549 13.1431 16.958C13.2251 16.96 13.2513 16.9293 13.2507 16.8477C13.2487 16.1762 13.2487 15.5039 13.2507 14.8316C13.2507 14.7561 13.2238 14.731 13.1493 14.7323C12.9705 14.7361 12.7911 14.7284 12.6128 14.7356C12.5149 14.7394 12.4835 14.7034 12.4919 14.6106C12.506 14.4631 12.4304 14.2754 12.5245 14.1786C12.6066 14.0946 12.7911 14.1574 12.9308 14.1548C13.1572 14.1524 13.3852 14.1548 13.6121 14.1548ZM20.4835 4.01576C20.4617 4.04841 20.454 4.05923 20.447 4.07023C20.4072 4.12978 20.4379 4.2502 20.338 4.2484C20.2494 4.24643 20.2719 4.13618 20.2406 4.07597C20.2324 4.05989 20.2225 4.04512 20.1951 4.00033C20.1951 4.08302 20.1964 4.12978 20.1951 4.17719C20.1938 4.20919 20.2009 4.24955 20.1502 4.25217C20.099 4.2548 20.1021 4.21378 20.1014 4.18162C20.1003 4.07006 20.1003 3.95932 20.1009 3.84841C20.1009 3.81068 20.095 3.76704 20.1541 3.76573C20.1984 3.76507 20.2368 3.76326 20.2553 3.82085C20.2789 3.8914 20.2873 3.97015 20.3418 4.03807C20.3938 3.97212 20.4027 3.89583 20.4225 3.82594C20.4392 3.76901 20.4745 3.76523 20.5206 3.76523C20.579 3.76573 20.5764 3.80674 20.5771 3.8453C20.5777 3.95686 20.5777 4.0676 20.5764 4.17916C20.5757 4.2105 20.5802 4.25217 20.5303 4.25283C20.4803 4.25283 20.484 4.21312 20.4835 4.18031C20.4822 4.1329 20.4835 4.08614 20.4835 4.01576ZM19.8745 3.76441C19.8888 3.76441 19.9041 3.76195 19.9175 3.76441C19.9708 3.77475 20.0534 3.73373 20.0708 3.79723C20.0944 3.88631 20.0009 3.84152 19.9612 3.86055C19.9215 3.87975 19.9292 3.91502 19.9283 3.94718C19.9265 4.02396 19.9272 4.10091 19.9272 4.17785C19.9272 4.22018 19.919 4.25545 19.8644 4.25332C19.8143 4.25168 19.8163 4.21493 19.8163 4.18162C19.8148 4.10967 19.8146 4.03768 19.8156 3.96572C19.8176 3.90419 19.8183 3.84644 19.7298 3.85481C19.699 3.85744 19.6721 3.84841 19.6721 3.80937C19.6721 3.75555 19.7138 3.76638 19.7446 3.76507C19.7881 3.7631 19.8311 3.76441 19.8747 3.76441H19.8745Z" fill="#00979C"/>
<path fill-rule="evenodd" clip-rule="evenodd" d="M5.24626 7.80002C5.77749 7.80002 6.30938 7.8038 6.84061 7.79674C6.96497 7.79494 6.99697 7.83333 6.98942 7.95129C6.97885 8.10062 6.97885 8.25051 6.98942 8.39984C6.99828 8.5242 6.96497 8.56455 6.8329 8.56324C6.12743 8.55619 5.4218 8.55947 4.71683 8.55947C4.35917 8.55947 4.00151 8.55438 3.64468 8.56275C3.51966 8.56587 3.48767 8.5242 3.49472 8.40689C3.50424 8.25316 3.50293 8.09731 3.49472 7.94292C3.48898 7.83202 3.52097 7.79559 3.63746 7.79691C4.17345 7.8038 4.71043 7.80002 5.24626 7.80002ZM15.5886 6.74773C15.7141 6.74773 15.8404 6.7515 15.9659 6.74641C16.048 6.74313 16.0742 6.77201 16.0731 6.8547C16.0685 7.08668 16.0763 7.31866 16.0691 7.55065C16.0654 7.65581 16.091 7.6942 16.2037 7.68977C16.4306 7.68075 16.6581 7.69043 16.885 7.686C16.9728 7.68403 17.0182 7.70126 17.0158 7.80331C17.0104 8.05467 17.0102 8.30612 17.0151 8.5575C17.0171 8.64855 16.9823 8.67234 16.8958 8.67103C16.6639 8.66578 16.4319 8.67349 16.1999 8.66709C16.1013 8.66381 16.0654 8.68891 16.0686 8.79408C16.0762 9.02606 16.0673 9.25805 16.0731 9.49003C16.0755 9.58732 16.0517 9.62719 15.9461 9.62391C15.6996 9.6176 15.4531 9.61738 15.2067 9.62325C15.111 9.62588 15.0816 9.59503 15.0841 9.49955C15.0907 9.25805 15.083 9.01638 15.088 8.77472C15.0893 8.69269 15.0642 8.66578 14.9816 8.66775C14.7496 8.67218 14.5169 8.66266 14.2856 8.67218C14.1665 8.67677 14.1389 8.63379 14.1414 8.52354C14.1485 8.29664 14.1524 8.06909 14.1407 7.84235C14.1337 7.70831 14.1837 7.6796 14.3068 7.68469C14.5292 7.6942 14.7515 7.68338 14.974 7.68912C15.0624 7.69174 15.0905 7.66484 15.088 7.57444C15.0823 7.34311 15.0905 7.11047 15.0841 6.87848C15.0816 6.78038 15.1059 6.7387 15.2111 6.74576C15.3366 6.75413 15.4623 6.74773 15.5884 6.74773H15.5886Z" fill="#00979C"/>
</svg>
