<svg width="25" height="16" viewBox="0 0 25 16" fill="none" xmlns="http://www.w3.org/2000/svg">
<path d="M22.9167 2.08333H15.625V0H22.9167V2.08333ZM24.6875 12.5C24.2708 13.8542 22.6042 15.625 19.375 15.625C16.1458 15.625 13.5417 13.8542 13.5417 9.6875C13.5417 5.625 15.9375 3.54167 19.2708 3.54167C22.5 3.54167 24.4792 5.41667 24.8958 8.125C25 8.64583 25 9.375 25 10.4167H16.6667C16.7708 13.75 20.3125 13.8542 21.4583 12.5H24.6875ZM16.6667 8.33333H21.875C21.7708 6.77083 20.7292 6.04167 19.2708 6.04167C17.8125 6.04167 16.9792 6.77083 16.6667 8.33333ZM6.77083 15.625H0V0H7.29167C13.0208 0.104167 13.125 5.625 10.1042 7.1875C13.6458 8.54167 13.75 15.625 6.77083 15.625ZM3.125 6.25H6.875C9.47917 6.25 9.89583 3.125 6.5625 3.125H3.125V6.25ZM6.66667 9.375H3.125V12.5H6.5625C9.79167 12.5 9.58333 9.375 6.66667 9.375Z" fill="black"/>
</svg>
