<svg width="21" height="21" viewBox="0 0 21 21" fill="none" xmlns="http://www.w3.org/2000/svg">
<path d="M18.9328 5.03674L11.0086 0.475806C10.8773 0.393774 10.6969 0.360962 10.5 0.360962C10.3031 0.360962 10.1227 0.410181 9.99141 0.475806L2.11641 5.05315C1.8375 5.21721 1.64062 5.62737 1.64062 5.93909V15.0774C1.64062 15.2578 1.67344 15.4711 1.80469 15.6516L19.3266 5.47971C19.2281 5.28284 19.0805 5.13518 18.9328 5.03674Z" fill="#659AD3"/>
<path d="M1.75546 15.6351C1.83749 15.7664 1.95234 15.8812 2.06718 15.9468L9.97499 20.5242C10.1062 20.6062 10.2867 20.639 10.4836 20.639C10.6805 20.639 10.8609 20.5898 10.9922 20.5242L18.8672 15.9468C19.1461 15.7828 19.343 15.3726 19.343 15.0609V5.92263C19.343 5.77498 19.3266 5.61091 19.2445 5.46326L1.75546 15.6351Z" fill="#03599C"/>
<path d="M13.9945 12.4852C13.3055 13.6992 11.993 14.5195 10.5 14.5195C8.28516 14.5195 6.48047 12.7148 6.48047 10.5C6.48047 8.28516 8.28516 6.48047 10.5 6.48047C11.993 6.48047 13.3055 7.30078 13.9945 8.53125L16.1273 7.30078C15.0117 5.34844 12.9117 4.01953 10.5 4.01953C6.92344 4.01953 4.01953 6.92344 4.01953 10.5C4.01953 14.0766 6.92344 16.9805 10.5 16.9805C12.8953 16.9805 14.9953 15.668 16.1109 13.732L13.9945 12.4852Z" fill="white"/>
</svg>
