<svg width="21" height="21" viewBox="0 0 21 21" fill="none" xmlns="http://www.w3.org/2000/svg">
<path fill-rule="evenodd" clip-rule="evenodd" d="M19.593 6.27879C19.5929 5.93486 19.5193 5.63095 19.3706 5.37011C19.2244 5.11362 19.0056 4.89865 18.7121 4.72867C16.2893 3.33165 13.8641 1.9389 11.442 0.540452C10.789 0.163479 10.1559 0.177222 9.50779 0.559607C8.54343 1.12834 3.71519 3.89455 2.27644 4.72789C1.68392 5.0709 1.3956 5.59584 1.39546 6.27815C1.39453 9.08765 1.39546 11.8971 1.39453 14.7067C1.39467 15.043 1.4651 15.341 1.6073 15.598C1.75349 15.8622 1.97537 16.0831 2.27566 16.2569C3.71448 17.0903 8.54335 19.8562 9.50751 20.4251C10.1559 20.8077 10.789 20.8214 11.4422 20.4443C13.8643 19.0458 16.2897 17.6531 18.7129 16.2561C19.0132 16.0823 19.235 15.8613 19.3812 15.5972C19.5232 15.3403 19.5938 15.0423 19.5939 14.7059C19.5939 14.7059 19.5939 9.08837 19.593 6.27879Z" fill="#5C8DBC"/>
<path fill-rule="evenodd" clip-rule="evenodd" d="M10.5221 10.4651L1.6073 15.598C1.75349 15.8623 1.97537 16.0832 2.27566 16.257C3.71448 17.0903 8.54335 19.8563 9.50751 20.4252C10.1559 20.8078 10.789 20.8215 11.4422 20.4443C13.8643 19.0458 16.2897 17.6531 18.7129 16.2561C19.0132 16.0824 19.235 15.8613 19.3812 15.5973L10.5221 10.4651Z" fill="#1A4674"/>
<path fill-rule="evenodd" clip-rule="evenodd" d="M7.88162 11.9855C8.40037 12.8911 9.37556 13.502 10.4942 13.502C11.6198 13.502 12.6006 12.8834 13.1167 11.9681L10.5221 10.4651L7.88162 11.9855Z" fill="#1A4674"/>
<path fill-rule="evenodd" clip-rule="evenodd" d="M19.593 6.2788C19.5929 5.93487 19.5193 5.63095 19.3705 5.37012L10.5221 10.465L19.3812 15.5972C19.5232 15.3403 19.5938 15.0423 19.5939 14.7059C19.5939 14.7059 19.5939 9.08837 19.593 6.2788Z" fill="#1B598E"/>
<path fill-rule="evenodd" clip-rule="evenodd" d="M19.1059 10.8319H18.4136V11.5243H17.7212V10.8319H17.029V10.1397H17.7212V9.44739H18.4136V10.1397H19.1059V10.8319Z" fill="white"/>
<path fill-rule="evenodd" clip-rule="evenodd" d="M16.5798 10.8319H15.8876V11.5243H15.1953V10.8319H14.503V10.1397H15.1953V9.44739H15.8876V10.1397H16.5798V10.8319Z" fill="white"/>
<path fill-rule="evenodd" clip-rule="evenodd" d="M13.1167 11.968C12.6005 12.8834 11.6198 13.5019 10.4942 13.5019C9.37555 13.5019 8.40036 12.8911 7.88161 11.9855C7.62961 11.5454 7.4847 11.0359 7.4847 10.4924C7.4847 8.83035 8.83216 7.48296 10.4942 7.48296C11.6057 7.48296 12.5758 8.08616 13.0971 8.98252L15.7276 7.46779C14.682 5.66296 12.73 4.44873 10.4942 4.44873C7.15629 4.44873 4.45047 7.15462 4.45047 10.4924C4.45047 11.5874 4.74178 12.6143 5.25092 13.5001C6.29382 15.3145 8.25139 16.5362 10.4942 16.5362C12.7412 16.5362 14.7018 15.3095 15.7432 13.4898L13.1167 11.968Z" fill="white"/>
</svg>
