<svg width="21" height="21" viewBox="0 0 21 21" fill="none" xmlns="http://www.w3.org/2000/svg">
<g clip-path="url(#clip0_1_672)">
<path d="M10.5 21C16.299 21 21 16.299 21 10.5C21 4.70101 16.299 0 10.5 0C4.70101 0 0 4.70101 0 10.5C0 16.299 4.70101 21 10.5 21Z" fill="#05930C"/>
<path d="M3.19123 2.9613L18.0252 17.8226C16.1177 19.7826 13.451 21 10.5 21C4.70101 21 0 16.299 0 10.5C0 7.54203 1.22314 4.86974 3.19123 2.9613Z" fill="white" fill-opacity="0.1"/>
<path d="M9.98482 14.2898C9.27052 14.6374 8.48179 14.8041 7.68794 14.7755C6.6266 14.822 5.59682 14.4081 4.86279 13.6401C4.13343 12.8226 3.75302 11.752 3.80294 10.6575C3.75161 9.47142 4.18243 8.31505 4.99732 7.45171C5.7939 6.63674 6.89683 6.19486 8.03576 6.23437C8.70107 6.20898 9.3645 6.32067 9.98482 6.56249V7.59609C9.38316 7.26168 8.70435 7.09085 8.01607 7.10062C7.14907 7.07188 6.31186 7.41873 5.7192 8.05218C5.10478 8.75258 4.78704 9.6646 4.83326 10.5951C4.78781 11.4746 5.08408 12.3375 5.66013 13.0036C6.21903 13.6045 7.01231 13.9316 7.83232 13.8994C8.58845 13.9182 9.33489 13.7262 9.9881 13.3448L9.98482 14.2898ZM17.3119 8.68218L17.1806 9.29249H15.6712L15.3103 11.025H16.9312L16.777 11.6353H15.1889L14.6803 13.9322H13.9551L14.4506 11.6353H13.0069L12.5212 13.9322H11.8125L12.2981 11.6353H10.7756L10.8904 11.025H12.4195L12.7706 9.29577H11.1726L11.294 8.68546H12.892L13.3776 6.36562H14.1094L13.6237 8.68546H15.0773L15.5728 6.36562H16.2815L15.7959 8.68546L17.3119 8.68218ZM14.9592 9.29249H13.5023L13.125 11.025H14.5884L14.9592 9.29249Z" fill="white"/>
</g>
<defs>
<clipPath id="clip0_1_672">
<rect width="21" height="21" fill="white"/>
</clipPath>
</defs>
</svg>
