<svg width="14" height="21" viewBox="0 0 14 21" fill="none" xmlns="http://www.w3.org/2000/svg">
<g clip-path="url(#clip0_1_642)">
<path d="M7 10.5C7 9.57174 7.36875 8.6815 8.02513 8.02513C8.6815 7.36875 9.57174 7 10.5 7C11.4283 7 12.3185 7.36875 12.9749 8.02513C13.6313 8.6815 14 9.57174 14 10.5C14 11.4283 13.6313 12.3185 12.9749 12.9749C12.3185 13.6313 11.4283 14 10.5 14C9.57174 14 8.6815 13.6313 8.02513 12.9749C7.36875 12.3185 7 11.4283 7 10.5Z" fill="#1ABCFE"/>
<path d="M0 17.5C0 16.5717 0.368749 15.6815 1.02513 15.0251C1.6815 14.3687 2.57174 14 3.5 14H7V17.5C7 18.4283 6.63125 19.3185 5.97487 19.9749C5.3185 20.6313 4.42826 21 3.5 21C2.57174 21 1.6815 20.6313 1.02513 19.9749C0.368749 19.3185 0 18.4283 0 17.5H0Z" fill="#0ACF83"/>
<path d="M7 0V7H10.5C11.4283 7 12.3185 6.63125 12.9749 5.97487C13.6313 5.3185 14 4.42826 14 3.5C14 2.57174 13.6313 1.6815 12.9749 1.02513C12.3185 0.368749 11.4283 0 10.5 0L7 0Z" fill="#FF7262"/>
<path d="M0 3.5C0 4.42826 0.368749 5.3185 1.02513 5.97487C1.6815 6.63125 2.57174 7 3.5 7H7V0H3.5C2.57174 0 1.6815 0.368749 1.02513 1.02513C0.368749 1.6815 0 2.57174 0 3.5H0Z" fill="#F24E1E"/>
<path d="M0 10.5C0 11.4283 0.368749 12.3185 1.02513 12.9749C1.6815 13.6313 2.57174 14 3.5 14H7V7H3.5C2.57174 7 1.6815 7.36875 1.02513 8.02513C0.368749 8.6815 0 9.57174 0 10.5H0Z" fill="#A259FF"/>
</g>
<defs>
<clipPath id="clip0_1_642">
<rect width="14" height="21" fill="white"/>
</clipPath>
</defs>
</svg>
