<svg width="21" height="21" viewBox="0 0 21 21" fill="none" xmlns="http://www.w3.org/2000/svg">
<rect x="1.3125" y="1.3125" width="18.375" height="18.375" fill="#FFCA28"/>
<path d="M12.4688 16.595L13.8216 15.6998C13.9276 16.0329 14.599 16.824 15.4471 16.824C16.2952 16.824 16.6889 16.3608 16.6889 16.0537C16.6889 15.2169 15.823 14.9218 15.407 14.7801C15.3392 14.757 15.2834 14.738 15.2452 14.7213C15.2256 14.7128 15.196 14.7015 15.158 14.687C14.6954 14.5102 12.9887 13.8582 12.9887 11.9681C12.9887 9.88626 14.9978 9.64685 15.4522 9.64685C15.7494 9.64685 17.1786 9.68328 17.8904 11.0209L16.5779 11.9369C16.2901 11.354 15.8121 11.1614 15.5178 11.1614C14.7909 11.1614 14.6394 11.6943 14.6394 11.9369C14.6394 12.6176 15.4292 12.9226 16.0961 13.1802C16.2705 13.2476 16.4366 13.3118 16.5779 13.3785C17.3048 13.7221 18.375 14.2841 18.375 16.0537C18.375 16.94 17.6316 18.375 15.7601 18.375C13.2462 18.375 12.5798 16.8656 12.4688 16.595Z" fill="#3E3E3E"/>
<path d="M5.90625 16.7728L7.31632 15.878C7.42681 16.211 7.85614 16.8248 8.4791 16.8248C9.10205 16.8248 9.4209 16.1849 9.4209 15.878V9.84373H11.1551V15.878C11.1831 16.7103 10.7215 18.375 8.68429 18.375C6.81122 18.375 6.03252 17.2618 5.90625 16.7728Z" fill="#3E3E3E"/>
</svg>
