<svg width="16" height="21" viewBox="0 0 16 21" fill="none" xmlns="http://www.w3.org/2000/svg">
<path d="M4.98805 16.2405C4.98805 16.2405 4.18556 16.7072 5.55917 16.8651C7.22326 17.0549 8.07375 17.0277 9.90759 16.6806C9.90759 16.6806 10.3897 16.9829 11.0631 17.2448C6.95208 19.0067 1.7591 17.1427 4.98805 16.2405Z" fill="#5382A1"/>
<path d="M4.48583 13.9413C4.48583 13.9413 3.58575 14.6075 4.96038 14.7497C6.73802 14.9331 8.14185 14.9481 10.571 14.4804C10.571 14.4804 10.907 14.821 11.4353 15.0073C6.46491 16.4607 0.928754 15.1219 4.48583 13.9413Z" fill="#5382A1"/>
<path d="M8.72059 10.0412C9.73354 11.2074 8.45445 12.2568 8.45445 12.2568C8.45445 12.2568 11.0265 10.9291 9.84527 9.2664C8.74204 7.71585 7.89602 6.94545 12.4761 4.28918C12.4761 4.28918 5.2869 6.0847 8.72059 10.0412Z" fill="#E76F00"/>
<path d="M14.1577 17.941C14.1577 17.941 14.7516 18.4304 13.5037 18.8089C11.1308 19.5278 3.62736 19.7448 1.54295 18.8376C0.793656 18.5116 2.19879 18.0592 2.6408 17.9643C3.10176 17.8643 3.36519 17.883 3.36519 17.883C2.53189 17.296 -2.02086 19.0356 1.05261 19.5338C9.43442 20.8931 16.3319 18.9217 14.1577 17.941Z" fill="#5382A1"/>
<path d="M5.37402 11.5591C5.37402 11.5591 1.55731 12.4656 4.02243 12.7948C5.06328 12.9342 7.13819 12.9026 9.07091 12.7407C10.6504 12.6075 12.2365 12.3242 12.2365 12.3242C12.2365 12.3242 11.6795 12.5627 11.2766 12.8378C7.40076 13.8572 -0.0865723 13.383 2.06893 12.3403C3.89185 11.4591 5.37402 11.5591 5.37402 11.5591Z" fill="#5382A1"/>
<path d="M12.2207 15.3862C16.1607 13.3388 14.339 11.3713 13.0675 11.6364C12.7558 11.7013 12.6169 11.7575 12.6169 11.7575C12.6169 11.7575 12.7326 11.5762 12.9535 11.4978C15.469 10.6134 17.4035 14.106 12.1415 15.4893C12.1415 15.4894 12.2025 15.4349 12.2207 15.3862Z" fill="#5382A1"/>
<path d="M9.8454 0C9.8454 0 12.0274 2.18273 7.77587 5.53916C4.36658 8.23159 6.99845 9.76674 7.77446 11.5207C5.7844 9.7252 4.32396 8.14459 5.30374 6.67351C6.74182 4.5141 10.7258 3.46714 9.8454 0Z" fill="#E76F00"/>
<path d="M5.76111 20.934C9.54295 21.1761 15.3504 20.7997 15.4879 19.0103C15.4879 19.0103 15.2236 19.6886 12.3625 20.2274C9.13457 20.8348 5.15343 20.7639 2.79218 20.3746C2.79223 20.3745 3.27555 20.7746 5.76111 20.934Z" fill="#5382A1"/>
</svg>
