<svg width="21" height="21" viewBox="0 0 21 21" fill="none" xmlns="http://www.w3.org/2000/svg">
<g clip-path="url(#clip0_1_690)">
<path d="M0 7.6C0 4.93975 0 3.60963 0.517719 2.59354C0.973118 1.69978 1.69978 0.973118 2.59354 0.517719C3.60963 0 4.93975 0 7.6 0H13.4C16.0602 0 17.3904 0 18.4065 0.517719C19.3002 0.973118 20.0269 1.69978 20.4823 2.59354C21 3.60963 21 4.93975 21 7.6V13.4C21 16.0602 21 17.3904 20.4823 18.4065C20.0269 19.3002 19.3002 20.0269 18.4065 20.4823C17.3904 21 16.0602 21 13.4 21H7.6C4.93975 21 3.60963 21 2.59354 20.4823C1.69978 20.0269 0.973118 19.3002 0.517719 18.4065C0 17.3904 0 16.0602 0 13.4V7.6Z" fill="#001E36"/>
<path d="M11.0285 15.4651H5.47803C5.38408 15.4651 5.33712 15.4121 5.33717 15.3061V6.13118C5.32677 6.05653 5.3912 5.99047 5.46397 6.00114H7.18265C7.23925 5.99296 7.28912 6.04515 7.28126 6.1023V13.6445H11.3244C11.4089 13.6445 11.4418 13.6879 11.423 13.7746L11.1694 15.335C11.1672 15.4136 11.1027 15.4643 11.0285 15.4651Z" fill="#31A8FF"/>
<path d="M12.4386 8.27394H13.9742C14.0589 8.2747 14.1349 8.33468 14.1573 8.41844C14.2698 8.67471 14.2837 8.98375 14.2841 9.26042C14.5474 8.94594 14.865 8.68391 15.2209 8.48743C15.6026 8.26589 16.0354 8.15361 16.4739 8.16233C16.5467 8.15165 16.6111 8.21773 16.6007 8.29237V10.0407C16.6007 10.1082 16.5536 10.1418 16.4598 10.1418C15.8099 10.0958 14.798 10.2533 14.3257 10.7775V15.3234C14.3257 15.4101 14.2881 15.4534 14.213 15.4534H12.5654C12.4845 15.4653 12.4131 15.3906 12.4245 15.3089V10.373C12.4245 9.71157 12.4385 9.03027 12.34 8.3751C12.3248 8.31481 12.3811 8.25875 12.4386 8.27394Z" fill="#31A8FF"/>
</g>
<defs>
<clipPath id="clip0_1_690">
<rect width="21" height="21" fill="white"/>
</clipPath>
</defs>
</svg>
