<svg width="21" height="21" viewBox="0 0 21 21" fill="none" xmlns="http://www.w3.org/2000/svg">
<path d="M11.9279 4.10879C11.2353 3.29144 10.6395 2.45617 10.5178 2.28656C10.5153 2.28299 10.5119 2.28008 10.508 2.27808C10.5041 2.27607 10.4998 2.27502 10.4954 2.27502C10.4911 2.27502 10.4867 2.27607 10.4828 2.27808C10.4789 2.28008 10.4756 2.28299 10.473 2.28656C10.3521 2.45809 9.75618 3.29336 9.06493 4.11071C3.131 11.6665 10 16.7658 10 16.7658L10.0557 16.8049C10.1082 17.5934 10.2375 18.725 10.2375 18.725H10.754C10.754 18.725 10.882 17.596 10.9352 16.8049L10.9915 16.7607C10.9915 16.7607 17.8605 11.6665 11.9279 4.10879ZM10.4961 16.6538C10.4961 16.6538 10.1882 16.3914 10.105 16.2595V16.2455L10.4775 8.01695C10.4784 8.01238 10.4808 8.00824 10.4843 8.00526C10.4879 8.00229 10.4924 8.00065 10.497 8.00065C10.5017 8.00065 10.5062 8.00229 10.5098 8.00526C10.5133 8.00824 10.5157 8.01238 10.5166 8.01695L10.8904 16.2467V16.2608C10.8071 16.3888 10.4993 16.6551 10.4993 16.6551" fill="#00ED64"/>
</svg>
