<svg width="21" height="21" viewBox="0 0 21 21" fill="none" xmlns="http://www.w3.org/2000/svg">
<path fill-rule="evenodd" clip-rule="evenodd" d="M6.55429 5.50318C6.40944 5.50272 6.26512 5.5211 6.125 5.55787V5.57701H6.14578C6.24613 5.7285 6.35803 5.87202 6.48047 6.00631C6.56469 6.17365 6.63797 6.34044 6.72164 6.50779C6.73203 6.4974 6.74242 6.48646 6.74242 6.48646C6.82011 6.42479 6.88091 6.34445 6.91917 6.25294C6.95741 6.16143 6.97187 6.06171 6.96117 5.9631C6.91537 5.89248 6.87339 5.81946 6.83539 5.74435C6.7725 5.6399 6.63632 5.5874 6.55266 5.50372" fill="#5D87A1"/>
<path fill-rule="evenodd" clip-rule="evenodd" d="M16.9422 14.6295C16.2523 14.581 15.5601 14.681 14.9122 14.9226C14.7552 14.9855 14.5048 14.9855 14.4829 15.1841C14.5671 15.2677 14.577 15.4028 14.6508 15.5193C14.7941 15.7618 14.9782 15.9777 15.1949 16.1575C15.4136 16.3248 15.6324 16.4916 15.8649 16.6382C16.2723 16.8903 16.7333 17.0363 17.1303 17.2873C17.3611 17.4339 17.5908 17.622 17.8216 17.7795C17.9364 17.8632 18.0092 17.9983 18.1557 18.0529V18.0213C18.1127 17.905 18.0594 17.7928 17.9966 17.686C17.8921 17.5821 17.7871 17.4875 17.6821 17.383C17.3754 16.9774 17.0083 16.6211 16.5938 16.3265C16.2586 16.0957 15.5258 15.7796 15.3907 15.3968L15.3694 15.3754C15.6147 15.3407 15.8564 15.2844 16.0918 15.207C16.4473 15.1129 16.7716 15.1343 17.1374 15.0429C17.3053 15.0009 17.6088 14.8964 17.6088 14.8964V14.7323C17.4218 14.5464 17.2878 14.2975 17.0909 14.122C16.5553 13.6545 15.9845 13.2288 15.3836 12.8489C15.0626 12.6416 14.6486 12.5082 14.3068 12.3316C14.1832 12.2692 13.9786 12.2386 13.9037 12.1347C13.7337 11.8852 13.5915 11.6181 13.4794 11.3378C13.1797 10.7691 12.8893 10.1386 12.6311 9.537C12.4784 9.13389 12.3021 8.73999 12.1034 8.35741C11.1444 6.72688 9.7601 5.38777 8.09868 4.48335C7.67947 4.28043 7.23376 4.13757 6.7747 4.05897C6.51548 4.04803 6.25736 4.0278 5.99868 4.01796C5.8317 3.90856 5.67287 3.78721 5.52345 3.65484C4.93173 3.28022 3.41142 2.47522 2.97611 3.54109C2.6972 4.21428 3.39064 4.876 3.62853 5.2178C3.82912 5.4588 4.00585 5.71869 4.15626 5.99381C4.22899 6.16991 4.24978 6.3564 4.32033 6.54069C4.47213 7.01379 4.65238 7.4773 4.86009 7.92866C4.97118 8.15174 5.09915 8.36601 5.2429 8.5696C5.32658 8.6839 5.47095 8.73366 5.50212 8.92232C5.38743 9.16881 5.3072 9.42999 5.26368 9.69836C5.08291 10.2692 5.01638 10.8702 5.06789 11.4667C5.11941 12.0633 5.28796 12.644 5.56392 13.1753C5.72798 13.4341 6.12283 14.0034 6.65056 13.7857C7.11595 13.5997 7.01259 13.0097 7.14712 12.4928C7.17774 12.3676 7.15751 12.2856 7.21931 12.203V12.3037C7.21931 12.3037 7.48345 12.8839 7.6147 13.1787C7.97163 13.7195 8.41505 14.198 8.92718 14.595C9.12975 14.772 9.29302 14.9894 9.40625 15.2333V15.4209H9.63978C9.63488 15.3362 9.61143 15.2538 9.5711 15.1794C9.53076 15.1048 9.4745 15.0401 9.40625 14.9899C9.2148 14.7928 9.03936 14.5807 8.88177 14.3555C8.45374 13.7458 8.07624 13.1023 7.75306 12.4311C7.58899 12.1029 7.45064 11.7431 7.31939 11.4155C7.25923 11.2892 7.25923 11.0984 7.15806 11.0327C6.97124 11.2538 6.80913 11.4946 6.67462 11.7508C6.51132 12.2687 6.41627 12.8057 6.39189 13.3482C6.35196 13.3591 6.37165 13.3482 6.35196 13.369C6.02986 13.2842 5.91884 12.9359 5.79743 12.6405C5.4838 11.7298 5.45217 10.7456 5.70665 9.81648C5.77665 9.59502 6.08017 8.8972 5.95876 8.68553C5.89806 8.48374 5.69626 8.36835 5.58579 8.20921C5.44476 7.99511 5.32341 7.7687 5.22321 7.53272C4.98314 6.94428 4.86173 6.28803 4.60033 5.69522C4.45562 5.41011 4.28713 5.13771 4.09665 4.88093C3.88595 4.6244 3.70009 4.34846 3.54158 4.05678C3.49126 3.9403 3.42071 3.74999 3.50111 3.62312C3.50653 3.58787 3.52329 3.55536 3.54885 3.53049C3.57441 3.50562 3.60737 3.48976 3.64274 3.4853C3.7729 3.36937 4.14642 3.51702 4.27712 3.58046C4.62841 3.71875 4.96301 3.89614 5.27462 4.10928C5.41571 4.21538 5.74821 4.4839 5.74821 4.4839H5.84665C6.18134 4.55663 6.55759 4.50413 6.87259 4.59874C7.40296 4.77554 7.90911 5.01805 8.37923 5.32062C9.76482 6.2039 10.8913 7.43903 11.6435 8.89992C11.7693 9.14002 11.8224 9.36034 11.9372 9.61086C12.1559 10.1249 12.4294 10.6499 12.6481 11.1497C12.8411 11.6443 13.0907 12.1148 13.3919 12.5519C13.5483 12.7707 14.1767 12.8866 14.4594 13.0015C14.7049 13.0864 14.9459 13.1841 15.1812 13.2941C15.5373 13.5128 15.8922 13.7649 16.2274 14.005C16.3943 14.1308 16.9176 14.3922 16.9493 14.6016" fill="#00758F"/>
</svg>
