<svg width="21" height="21" viewBox="0 0 21 21" fill="none" xmlns="http://www.w3.org/2000/svg">
<g clip-path="url(#clip0_1_665)">
<path fill-rule="evenodd" clip-rule="evenodd" d="M10.3861 16.9197C10.3149 16.9197 10.2484 16.9008 10.1867 16.8675L9.55536 16.4925C9.46043 16.4403 9.5079 16.4213 9.53638 16.4118C9.66454 16.3691 9.68827 16.3596 9.82119 16.2837C9.83543 16.2742 9.85441 16.2789 9.86865 16.2884L10.3528 16.578C10.3718 16.5875 10.3956 16.5875 10.4098 16.578L12.3038 15.4814C12.3228 15.472 12.3323 15.453 12.3323 15.4292V13.2409C12.3323 13.2172 12.3228 13.1982 12.3038 13.1887L10.4098 12.097C10.3908 12.0875 10.3671 12.0875 10.3528 12.097L8.45884 13.1887C8.43986 13.1982 8.43036 13.222 8.43036 13.2409V15.4292C8.43036 15.4482 8.43986 15.472 8.45884 15.4814L8.97625 15.7805C9.25631 15.9229 9.43195 15.7568 9.43195 15.5906V13.4308C9.43195 13.4023 9.45568 13.3739 9.48891 13.3739H9.731C9.75948 13.3739 9.78796 13.3976 9.78796 13.4308V15.5906C9.78796 15.9656 9.58384 16.184 9.22783 16.184C9.11865 16.184 9.03321 16.184 8.79112 16.0653L8.29271 15.7805C8.16929 15.7093 8.09334 15.5764 8.09334 15.434V13.2457C8.09334 13.1033 8.16929 12.9704 8.29271 12.8992L10.1867 11.8026C10.3054 11.7362 10.4668 11.7362 10.5854 11.8026L12.4794 12.8992C12.6028 12.9704 12.6788 13.1033 12.6788 13.2457V15.434C12.6788 15.5764 12.6028 15.7093 12.4794 15.7805L10.5854 16.877C10.5237 16.9055 10.4525 16.9197 10.3861 16.9197ZM10.9699 15.415C10.1392 15.415 9.96834 15.0352 9.96834 14.7125C9.96834 14.684 9.99207 14.6555 10.0253 14.6555H10.2721C10.3006 14.6555 10.3244 14.6745 10.3244 14.703C10.3623 14.9545 10.4715 15.078 10.9747 15.078C11.3734 15.078 11.5443 14.9878 11.5443 14.7742C11.5443 14.6508 11.4968 14.5606 10.875 14.4989C10.3576 14.4466 10.0348 14.3327 10.0348 13.9197C10.0348 13.5352 10.3576 13.3074 10.8987 13.3074C11.5063 13.3074 11.8054 13.5163 11.8433 13.972C11.8433 13.9862 11.8386 14.0004 11.8291 14.0147C11.8196 14.0242 11.8054 14.0337 11.7911 14.0337H11.5443C11.5206 14.0337 11.4968 14.0147 11.4921 13.9909C11.4351 13.7299 11.288 13.6444 10.8987 13.6444C10.462 13.6444 10.4098 13.7963 10.4098 13.9102C10.4098 14.0479 10.4715 14.0906 11.0601 14.1666C11.644 14.2425 11.9193 14.3517 11.9193 14.7599C11.9145 15.1776 11.5728 15.415 10.9699 15.415Z" fill="#539E43"/>
<path fill-rule="evenodd" clip-rule="evenodd" d="M4.50949 8.36113C4.50949 8.27569 4.46203 8.19499 4.38608 8.15227L2.37342 6.99404C2.34019 6.97506 2.30222 6.96556 2.26424 6.96082H2.24525C2.20728 6.96082 2.1693 6.97506 2.13608 6.99404L0.123418 8.15227C0.0474684 8.19499 0 8.27569 0 8.36113L0.00474684 11.4751C0.00474684 11.5178 0.028481 11.5605 0.0664557 11.5795C0.10443 11.6032 0.151899 11.6032 0.185127 11.5795L1.38133 10.8959C1.45728 10.8532 1.50475 10.7725 1.50475 10.6871V9.2298C1.50475 9.14436 1.55222 9.06366 1.62817 9.02094L2.13608 8.72664C2.17405 8.7029 2.21677 8.69341 2.25949 8.69341C2.30222 8.69341 2.34494 8.7029 2.37817 8.72664L2.88608 9.02094C2.96203 9.06366 3.00949 9.14436 3.00949 9.2298V10.6871C3.00949 10.7725 3.05696 10.8532 3.13291 10.8959L4.32911 11.5795C4.36709 11.6032 4.41456 11.6032 4.45253 11.5795C4.49051 11.5605 4.51424 11.5178 4.51424 11.4751L4.50949 8.36113Z" fill="#FEFEFE"/>
<path fill-rule="evenodd" clip-rule="evenodd" d="M14.1835 4.07479C14.1456 4.0558 14.0981 4.0558 14.0649 4.07479C14.0269 4.09852 14.0031 4.1365 14.0031 4.17922V7.26466C14.0031 7.29314 13.9889 7.32162 13.9604 7.34061C13.9319 7.35485 13.9035 7.35485 13.875 7.34061L13.3718 7.05105C13.2959 7.00833 13.2057 7.00833 13.1297 7.05105L11.1171 8.21403C11.0411 8.25675 10.9937 8.33745 10.9937 8.42289V10.7441C10.9937 10.8295 11.0411 10.9102 11.1171 10.953L13.1297 12.1159C13.2057 12.1586 13.2959 12.1586 13.3718 12.1159L15.3845 10.953C15.4604 10.9102 15.5079 10.8295 15.5079 10.7441V4.9577C15.5079 4.86751 15.4604 4.78681 15.3845 4.74409L14.1835 4.07479ZM13.9984 9.97985C13.9984 10.0036 13.9889 10.0226 13.9699 10.0321L13.2816 10.4308C13.2626 10.4403 13.2389 10.4403 13.2199 10.4308L12.5316 10.0321C12.5126 10.0226 12.5031 9.99884 12.5031 9.97985V9.18238C12.5031 9.15865 12.5126 9.13966 12.5316 9.13017L13.2199 8.73143C13.2389 8.72194 13.2626 8.72194 13.2816 8.73143L13.9699 9.13017C13.9889 9.13966 13.9984 9.16339 13.9984 9.18238V9.97985Z" fill="#FEFEFE"/>
<path fill-rule="evenodd" clip-rule="evenodd" d="M20.8813 9.16334C20.9573 9.12062 21 9.03993 21 8.95448V8.38961C21 8.30417 20.9525 8.22347 20.8813 8.18075L18.8829 7.02252C18.807 6.9798 18.7168 6.9798 18.6408 7.02252L16.6282 8.18549C16.5522 8.22822 16.5048 8.30891 16.5048 8.39436V10.7156C16.5048 10.801 16.5522 10.8817 16.6282 10.9244L18.6266 12.0637C18.7025 12.1064 18.7927 12.1064 18.8639 12.0637L20.0744 11.3896C20.1124 11.3706 20.1361 11.3279 20.1361 11.2852C20.1361 11.2425 20.1124 11.1997 20.0744 11.1807L18.0522 10.0178C18.0143 9.99404 17.9905 9.95606 17.9905 9.91334V9.18708C17.9905 9.14436 18.0143 9.10163 18.0522 9.08265L18.6836 8.72189C18.7215 8.69815 18.769 8.69815 18.807 8.72189L19.4383 9.08265C19.4763 9.10638 19.5 9.14436 19.5 9.18708V9.7567C19.5 9.79942 19.5237 9.84214 19.5617 9.86113C19.5997 9.88486 19.6472 9.88486 19.6851 9.86113L20.8813 9.16334Z" fill="#FEFEFE"/>
<path fill-rule="evenodd" clip-rule="evenodd" d="M18.731 9.05424C18.7453 9.04475 18.7642 9.04475 18.7785 9.05424L19.163 9.27734C19.1772 9.28683 19.1867 9.30107 19.1867 9.32006V9.76626C19.1867 9.78525 19.1772 9.79949 19.163 9.80899L18.7785 10.0321C18.7642 10.0416 18.7453 10.0416 18.731 10.0321L18.3465 9.80899C18.3323 9.79949 18.3228 9.78525 18.3228 9.76626V9.32006C18.3228 9.30107 18.3323 9.28683 18.3465 9.27734L18.731 9.05424Z" fill="#539E43"/>
<path fill-rule="evenodd" clip-rule="evenodd" d="M7.875 7.03204C7.79905 6.98932 7.70886 6.98932 7.63291 7.03204L5.63449 8.18552C5.55854 8.22824 5.51582 8.30894 5.51582 8.39438V10.7061C5.51582 10.7915 5.56329 10.8722 5.63449 10.915L7.63291 12.0684C7.70886 12.1112 7.79905 12.1112 7.875 12.0684L9.87342 10.915C9.94937 10.8722 9.99209 10.7915 9.99209 10.7061V8.39438C9.99209 8.30894 9.94462 8.22824 9.87342 8.18552L7.875 7.03204Z" fill="white"/>
<path fill-rule="evenodd" clip-rule="evenodd" d="M7.875 7.03204C7.79905 6.98932 7.70886 6.98932 7.63291 7.03204L5.63449 8.18552C5.55854 8.22824 5.51582 8.30894 5.51582 8.39438V10.7061C5.51582 10.7915 5.56329 10.8722 5.63449 10.915L7.63291 12.0684C7.70886 12.1112 7.79905 12.1112 7.875 12.0684L9.87342 10.915C9.94937 10.8722 9.99209 10.7915 9.99209 10.7061V8.39438C9.99209 8.30894 9.94462 8.22824 9.87342 8.18552L7.875 7.03204Z" fill="url(#paint0_linear_1_665)"/>
<mask id="mask0_1_665" style="mask-type:luminance" maskUnits="userSpaceOnUse" x="5" y="7" width="5" height="6">
<path fill-rule="evenodd" clip-rule="evenodd" d="M7.875 7.03204C7.79905 6.98932 7.70886 6.98932 7.63291 7.03204L5.63449 8.18552C5.55854 8.22824 5.51582 8.30894 5.51582 8.39438V10.7061C5.51582 10.7915 5.56329 10.8722 5.63449 10.915L7.63291 12.0684C7.70886 12.1112 7.79905 12.1112 7.875 12.0684L9.87342 10.915C9.94937 10.8722 9.99209 10.7915 9.99209 10.7061V8.39438C9.99209 8.30894 9.94462 8.22824 9.87342 8.18552L7.875 7.03204Z" fill="white"/>
</mask>
<g mask="url(#mask0_1_665)">
<path fill-rule="evenodd" clip-rule="evenodd" d="M9.8782 8.18552L7.87029 7.03203C7.8513 7.02254 7.82757 7.01305 7.80858 7.0083L5.55858 10.8627C5.57757 10.8865 5.6013 10.9055 5.62503 10.9197L7.63295 12.0732C7.68991 12.1064 7.75636 12.1159 7.81807 12.0969L9.93042 8.23298C9.91617 8.214 9.89719 8.19976 9.8782 8.18552Z" fill="url(#paint1_linear_1_665)"/>
</g>
<mask id="mask1_1_665" style="mask-type:luminance" maskUnits="userSpaceOnUse" x="5" y="7" width="5" height="6">
<path fill-rule="evenodd" clip-rule="evenodd" d="M7.875 7.03204C7.79905 6.98932 7.70886 6.98932 7.63291 7.03204L5.63449 8.18552C5.55854 8.22824 5.51582 8.30894 5.51582 8.39438V10.7061C5.51582 10.7915 5.56329 10.8722 5.63449 10.915L7.63291 12.0684C7.70886 12.1112 7.79905 12.1112 7.875 12.0684L9.87342 10.915C9.94937 10.8722 9.99209 10.7915 9.99209 10.7061V8.39438C9.99209 8.30894 9.94462 8.22824 9.87342 8.18552L7.875 7.03204Z" fill="white"/>
</mask>
<g mask="url(#mask1_1_665)">
<path fill-rule="evenodd" clip-rule="evenodd" d="M9.88291 10.915C9.93987 10.8818 9.98259 10.8248 10.0016 10.7631L7.79905 7.00359C7.74209 6.99409 7.68038 6.99884 7.62816 7.03207L5.63449 8.1808L7.78481 12.1017C7.81329 12.0969 7.84652 12.0874 7.875 12.0732L9.88291 10.915Z" fill="url(#paint2_linear_1_665)"/>
<path fill-rule="evenodd" clip-rule="evenodd" d="M9.88291 10.9149L7.87974 12.0684C7.85126 12.0827 7.82278 12.0922 7.78955 12.0969L7.82753 12.1681L10.049 10.8817V10.8532L9.99208 10.7583C9.98259 10.8248 9.93987 10.8817 9.88291 10.9149Z" fill="url(#paint3_linear_1_665)"/>
<path fill-rule="evenodd" clip-rule="evenodd" d="M9.88291 10.9149L7.87974 12.0684C7.85126 12.0827 7.82278 12.0922 7.78955 12.0969L7.82753 12.1681L10.049 10.8817V10.8532L9.99208 10.7583C9.98259 10.8248 9.93987 10.8817 9.88291 10.9149Z" fill="url(#paint4_linear_1_665)"/>
</g>
</g>
<defs>
<linearGradient id="paint0_linear_1_665" x1="7.32233" y1="7.24355" x2="5.19511" y2="9.81787" gradientUnits="userSpaceOnUse">
<stop stop-color="#41873F"/>
<stop offset="0.3288" stop-color="#418B3D"/>
<stop offset="0.6352" stop-color="#419637"/>
<stop offset="0.9319" stop-color="#3FA92D"/>
<stop offset="1" stop-color="#3FAE2A"/>
</linearGradient>
<linearGradient id="paint1_linear_1_665" x1="8.63157" y1="12.7074" x2="13.9527" y2="10.5816" gradientUnits="userSpaceOnUse">
<stop offset="0.1376" stop-color="#41873F"/>
<stop offset="0.4032" stop-color="#54A044"/>
<stop offset="0.7136" stop-color="#66B848"/>
<stop offset="0.9081" stop-color="#6CC04A"/>
</linearGradient>
<linearGradient id="paint2_linear_1_665" x1="5.44283" y1="12.2518" x2="10.0671" y2="12.2518" gradientUnits="userSpaceOnUse">
<stop offset="0.0919165" stop-color="#6CC04A"/>
<stop offset="0.2864" stop-color="#66B848"/>
<stop offset="0.5968" stop-color="#54A044"/>
<stop offset="0.8624" stop-color="#41873F"/>
</linearGradient>
<linearGradient id="paint3_linear_1_665" x1="5.44282" y1="12.9097" x2="10.067" y2="12.9097" gradientUnits="userSpaceOnUse">
<stop offset="0.0919165" stop-color="#6CC04A"/>
<stop offset="0.2864" stop-color="#66B848"/>
<stop offset="0.5968" stop-color="#54A044"/>
<stop offset="0.8624" stop-color="#41873F"/>
</linearGradient>
<linearGradient id="paint4_linear_1_665" x1="4.96623" y1="7.43624" x2="4.53026" y2="13.3043" gradientUnits="userSpaceOnUse">
<stop stop-color="#41873F"/>
<stop offset="0.3288" stop-color="#418B3D"/>
<stop offset="0.6352" stop-color="#419637"/>
<stop offset="0.9319" stop-color="#3FA92D"/>
<stop offset="1" stop-color="#3FAE2A"/>
</linearGradient>
<clipPath id="clip0_1_665">
<rect width="21" height="21" fill="white"/>
</clipPath>
</defs>
</svg>
