<svg width="21" height="21" viewBox="0 0 21 21" fill="none" xmlns="http://www.w3.org/2000/svg">
<ellipse cx="10.5" cy="10.4772" rx="10.2539" ry="5.39131" fill="url(#paint0_radial_1_669)"/>
<ellipse cx="10.5" cy="10.4772" rx="9.85336" ry="4.99077" fill="#6181B6"/>
<path fill-rule="evenodd" clip-rule="evenodd" d="M12.4947 12.0954L12.9834 9.58003C13.0955 9.01126 12.9994 8.58669 12.711 8.32233C12.4306 8.06598 11.95 7.93781 11.245 7.93781H10.3958L10.6362 6.68811C10.6442 6.64005 10.6362 6.59198 10.6041 6.55193C10.5721 6.51187 10.532 6.49585 10.484 6.49585H9.31438C9.23427 6.49585 9.17019 6.55193 9.15416 6.62402L8.63346 9.29164C8.58539 8.98723 8.47324 8.73088 8.28098 8.5226C7.93651 8.13007 7.39979 7.92979 6.6708 7.92979H4.41974C4.33964 7.92979 4.27555 7.98587 4.25953 8.05797L3.2101 13.4733C3.20209 13.5214 3.2101 13.5694 3.24215 13.6095C3.27419 13.6496 3.31424 13.6656 3.36231 13.6656H4.53991C4.62002 13.6656 4.6841 13.6095 4.70012 13.5374L4.95647 12.2316H5.82966C6.28628 12.2316 6.67881 12.1836 6.97521 12.0874C7.28763 11.9833 7.56801 11.8151 7.81635 11.5827C8.01662 11.3985 8.18485 11.1902 8.31302 10.9659L8.10474 12.0474C8.09673 12.0954 8.10474 12.1435 8.13678 12.1836C8.16883 12.2236 8.20888 12.2396 8.25695 12.2396H9.42653C9.50664 12.2396 9.57073 12.1836 9.58675 12.1115L10.1635 9.14745H10.9646C11.3091 9.14745 11.4052 9.21153 11.4373 9.24358C11.4613 9.26761 11.5094 9.36374 11.4533 9.66014L10.9887 12.0554C10.9806 12.1035 10.9887 12.1515 11.0207 12.1916C11.0527 12.2316 11.0928 12.2477 11.1409 12.2477H12.3425C12.4146 12.2236 12.4787 12.1675 12.4947 12.0954ZM7.07935 10.0126C7.00726 10.3891 6.87107 10.6615 6.6708 10.8137C6.47053 10.9659 6.14208 11.046 5.7095 11.046H5.18879L5.5653 9.10739H6.23821C6.73489 9.10739 6.93516 9.21153 7.01527 9.29965C7.11941 9.42783 7.14344 9.67616 7.07935 10.0126Z" fill="white"/>
<path fill-rule="evenodd" clip-rule="evenodd" d="M17.4935 8.52261C17.149 8.13008 16.6123 7.92981 15.8833 7.92981H13.6162C13.5361 7.92981 13.472 7.98589 13.456 8.05798L12.4066 13.4653C12.3986 13.5134 12.4066 13.5614 12.4386 13.6015C12.4707 13.6416 12.5107 13.6576 12.5588 13.6576H13.7364C13.8165 13.6576 13.8806 13.6015 13.8966 13.5294L14.1529 12.2236H15.0261C15.4827 12.2236 15.8753 12.1756 16.1717 12.0794C16.4841 11.9753 16.7645 11.8071 17.0128 11.5748C17.2211 11.3825 17.3973 11.1662 17.5255 10.9339C17.6537 10.7016 17.7498 10.4452 17.8059 10.1648C17.9421 9.4679 17.8379 8.92316 17.4935 8.52261ZM16.2678 10.0126C16.1957 10.3891 16.0595 10.6615 15.8592 10.8137C15.659 10.9659 15.3305 11.046 14.8979 11.046H14.3772L14.7537 9.10741H15.4267C15.9233 9.10741 16.1236 9.21155 16.2037 9.29967C16.3159 9.42784 16.3399 9.67618 16.2678 10.0126Z" fill="white"/>
<path fill-rule="evenodd" clip-rule="evenodd" d="M6.23822 8.94713C6.68683 8.94713 6.98323 9.02724 7.13544 9.19547C7.28764 9.36369 7.31969 9.64407 7.23958 10.0446C7.15947 10.4612 6.99925 10.7656 6.76694 10.9418C6.53462 11.1181 6.18214 11.2062 5.7095 11.2062H4.99654L5.43713 8.94713H6.23822ZM3.37033 13.4973H4.54793L4.82831 12.0634H5.83768C6.28629 12.0634 6.64677 12.0153 6.93517 11.9192C7.22356 11.823 7.4799 11.6708 7.72023 11.4465C7.9205 11.2623 8.08072 11.062 8.20088 10.8457C8.32105 10.6294 8.40916 10.3891 8.45723 10.1247C8.5854 9.48386 8.48927 8.98718 8.17685 8.62669C7.86443 8.2662 7.36775 8.08997 6.68683 8.08997H4.41975L3.37033 13.4973Z" fill="#000004"/>
<path fill-rule="evenodd" clip-rule="evenodd" d="M9.3224 6.65601H10.492L10.2116 8.08995H11.253C11.9099 8.08995 12.3585 8.2021 12.6069 8.43442C12.8552 8.66673 12.9273 9.03523 12.8312 9.54793L12.3425 12.0633H11.1569L11.6215 9.66809C11.6776 9.39572 11.6536 9.21147 11.5654 9.11534C11.4773 9.01921 11.2771 8.96313 10.9807 8.96313H10.0434L9.44257 12.0633H8.27298L9.3224 6.65601Z" fill="#000004"/>
<path fill-rule="evenodd" clip-rule="evenodd" d="M15.4267 8.94713C15.8753 8.94713 16.1717 9.02724 16.3239 9.19547C16.4761 9.36369 16.5081 9.64407 16.428 10.0446C16.3479 10.4612 16.1877 10.7656 15.9554 10.9418C15.7231 11.1181 15.3706 11.2062 14.898 11.2062H14.185L14.6256 8.94713H15.4267ZM12.5588 13.4973H13.7364L14.0168 12.0634H15.0261C15.4747 12.0634 15.8352 12.0153 16.1236 11.9192C16.412 11.823 16.6684 11.6708 16.9087 11.4465C17.1089 11.2623 17.2692 11.062 17.3893 10.8457C17.5095 10.6294 17.5976 10.3891 17.6457 10.1247C17.7738 9.48386 17.6777 8.98718 17.3653 8.62669C17.0529 8.2662 16.5562 8.08997 15.8753 8.08997H13.6082L12.5588 13.4973Z" fill="#000004"/>
<defs>
<radialGradient id="paint0_radial_1_669" cx="0" cy="0" r="1" gradientUnits="userSpaceOnUse" gradientTransform="translate(6.40258 6.98193) scale(29.084 15.2918)">
<stop stop-color="white"/>
<stop offset="0.5" stop-color="#4C6B97"/>
<stop offset="1" stop-color="#231F20"/>
</radialGradient>
</defs>
</svg>
