<svg width="21" height="21" viewBox="0 0 21 21" fill="none" xmlns="http://www.w3.org/2000/svg">
<path d="M18.6792 12.2318C18.5772 11.9228 18.31 11.7076 17.9644 11.6559C17.8013 11.6316 17.6147 11.642 17.3939 11.6875C17.0089 11.767 16.7233 11.7972 16.5148 11.803C17.3016 10.4748 17.9413 8.96006 18.3096 7.53414C18.9052 5.22855 18.5869 4.17821 18.215 3.70312C17.2309 2.44562 15.7951 1.77007 14.0628 1.7494C13.1388 1.73811 12.3276 1.92055 11.9045 2.05177C11.5104 1.98225 11.0868 1.9434 10.6423 1.93624C9.80901 1.92294 9.07279 2.10458 8.4437 2.47794C8.09543 2.36013 7.53646 2.1941 6.89096 2.08816C5.37275 1.83892 4.14915 2.03313 3.25414 2.6654C2.17038 3.43097 1.66796 4.76104 1.76088 6.61873C1.7904 7.20854 2.12034 9.00311 2.63983 10.705C2.93837 11.6831 3.25673 12.4955 3.58608 13.1196C4.0531 14.0046 4.55287 14.5258 5.1139 14.7129C5.42834 14.8177 5.99966 14.891 6.60056 14.3906C6.67675 14.4828 6.77838 14.5744 6.91321 14.6596C7.0845 14.7676 7.29394 14.8559 7.50309 14.9082C8.25686 15.0966 8.96297 15.0494 9.56524 14.7854C9.569 14.8925 9.57189 14.9948 9.57425 15.0832C9.57827 15.2266 9.58221 15.3672 9.58746 15.4987C9.62316 16.3875 9.68362 17.0787 9.86282 17.5624C9.87271 17.5889 9.88592 17.6294 9.89984 17.6724C9.98926 17.9461 10.1387 18.4044 10.5191 18.7632C10.9128 19.1349 11.3892 19.2489 11.8254 19.2489C12.0443 19.2489 12.2531 19.2202 12.4361 19.181C13.0889 19.0411 13.8302 18.828 14.3664 18.0644C14.8733 17.3426 15.1198 16.2555 15.1644 14.5425C15.1701 14.4941 15.1755 14.4478 15.1806 14.4037L15.1912 14.3131L15.3107 14.3237L15.3415 14.3257C16.0062 14.3561 16.8191 14.2151 17.3183 13.9832C17.7128 13.8001 18.9768 13.1328 18.6792 12.2318Z" fill="black"/>
<path d="M17.5425 12.4071C15.5659 12.8148 15.43 12.1455 15.43 12.1455C17.517 9.04882 18.3895 5.11785 17.6366 4.15577C15.5825 1.53142 12.0271 2.7726 11.9677 2.80475L11.9487 2.80822C11.5581 2.72712 11.1211 2.67886 10.6299 2.67083C9.73553 2.6562 9.05705 2.90532 8.5422 3.29574C8.5422 3.29574 2.19948 0.682763 2.49454 6.58201C2.55725 7.83698 4.29332 16.078 6.36396 13.5888C7.12078 12.6786 7.85209 11.909 7.85209 11.909C8.21527 12.1503 8.65007 12.2734 9.10588 12.2292L9.14131 12.1991C9.13029 12.3121 9.13536 12.4226 9.15549 12.5535C8.62204 13.1495 8.7788 13.2542 7.71246 13.4737C6.63341 13.696 7.26729 14.0919 7.68115 14.1955C8.18288 14.3209 9.34361 14.4986 10.128 13.4006L10.0967 13.5259C10.3057 13.6934 10.4524 14.6148 10.4278 15.4502C10.4032 16.2855 10.3868 16.8591 10.5515 17.3071C10.7162 17.7551 10.8803 18.763 12.2821 18.4626C13.4535 18.2116 14.0605 17.5611 14.1449 16.476C14.2049 15.7046 14.3405 15.8187 14.3491 15.1289L14.4578 14.8025C14.5832 13.7568 14.4778 13.4194 15.1994 13.5763L15.3748 13.5917C15.9059 13.6159 16.6011 13.5062 17.0091 13.3166C17.8876 12.909 18.4087 12.2281 17.5425 12.4071H17.5425Z" fill="#336791"/>
<path d="M8.91346 7.14312C8.73533 7.11834 8.57401 7.14125 8.49238 7.20309C8.44655 7.23783 8.4323 7.27812 8.42844 7.30584C8.41823 7.37929 8.46968 7.4605 8.50129 7.50237C8.59075 7.62094 8.72144 7.70243 8.85081 7.72035C8.86954 7.72302 8.88818 7.72422 8.90673 7.72422C9.12241 7.72422 9.31859 7.55627 9.33583 7.43231C9.35744 7.27706 9.13204 7.17357 8.91346 7.14319" fill="white"/>
<path d="M14.8145 7.14822C14.7974 7.02651 14.5809 6.99184 14.3754 7.02041C14.1701 7.04897 13.9711 7.14166 13.9878 7.2636C14.0011 7.35846 14.1723 7.52035 14.375 7.52035C14.3922 7.52035 14.4094 7.51923 14.4268 7.51677C14.5622 7.49803 14.6615 7.41208 14.7087 7.36257C14.7804 7.28705 14.8221 7.20292 14.8145 7.14822Z" fill="white"/>
<path d="M18.2003 12.3606C18.1249 12.1328 17.8823 12.0595 17.4792 12.1427C16.2826 12.3897 15.854 12.2185 15.7133 12.1149C16.6434 10.698 17.4087 8.98498 17.8215 7.38686C18.017 6.62983 18.1251 5.92677 18.1339 5.35373C18.1436 4.72476 18.0365 4.26258 17.8156 3.98025C16.9249 2.84203 15.6174 2.23149 14.0349 2.21475C12.947 2.2025 12.0277 2.48093 11.8496 2.55922C11.4744 2.46591 11.0652 2.4086 10.6199 2.4013C9.80314 2.38807 9.09719 2.58361 8.5127 2.9822C8.25879 2.88769 7.60265 2.66243 6.80021 2.53318C5.41297 2.30985 4.31059 2.47907 3.5239 3.03638C2.58523 3.7014 2.1519 4.89018 2.23584 6.56964C2.26409 7.13464 2.58604 8.87281 3.09408 10.5374C3.76285 12.7284 4.48985 13.9686 5.25474 14.2238C5.34426 14.2537 5.44747 14.2745 5.56131 14.2745C5.84034 14.2745 6.18243 14.1488 6.53835 13.7209C6.97249 13.2001 7.42154 12.692 7.88498 12.1971C8.18566 12.3585 8.51599 12.4486 8.85385 12.4577C8.85446 12.4665 8.85534 12.4754 8.85621 12.4841C8.79802 12.5535 8.74108 12.6238 8.68535 12.6952C8.45128 12.9923 8.40253 13.0542 7.64904 13.2093C7.4347 13.2536 6.86541 13.3708 6.85706 13.7699C6.84801 14.2059 7.53001 14.3891 7.60771 14.4085C7.87849 14.4762 8.13933 14.5096 8.38811 14.5096C8.99315 14.5096 9.52559 14.3108 9.9511 13.9261C9.93797 15.4804 10.0028 17.012 10.1894 17.4787C10.3423 17.8607 10.7157 18.7943 11.8952 18.7943C12.0682 18.7943 12.2587 18.7741 12.4683 18.7292C13.6993 18.4653 14.2339 17.9213 14.4406 16.7217C14.5513 16.0807 14.7412 14.55 14.8305 13.7289C15.019 13.7877 15.2616 13.8145 15.524 13.8145C16.0711 13.8145 16.7025 13.6983 17.0984 13.5145C17.5432 13.3079 18.3458 12.8011 18.2003 12.3606ZM15.2688 6.81221C15.2647 7.05463 15.2314 7.27467 15.196 7.50438C15.1579 7.75144 15.1186 8.00685 15.1087 8.3169C15.0989 8.61867 15.1366 8.93239 15.173 9.23576C15.2467 9.84861 15.3222 10.4795 15.0297 11.102C14.9811 11.0159 14.9378 10.9269 14.9001 10.8355C14.8638 10.7474 14.7848 10.6058 14.6755 10.4098C14.2501 9.64718 13.2541 7.86097 13.7641 7.13212C13.9159 6.91517 14.3013 6.69212 15.2688 6.81221ZM14.0961 2.7056C15.514 2.73689 16.6357 3.26733 17.4298 4.28213C18.0389 5.06049 17.3682 8.60218 15.4266 11.6576C15.4071 11.6328 15.3874 11.6081 15.3677 11.5834L15.3431 11.5527C15.8448 10.724 15.7467 9.90417 15.6594 9.17739C15.6235 8.87902 15.5896 8.59733 15.5983 8.33266C15.6072 8.0522 15.6442 7.8116 15.6802 7.57896C15.7242 7.29228 15.7691 6.99568 15.7567 6.64601C15.7659 6.60929 15.7697 6.56596 15.7649 6.51451C15.7333 6.17923 15.3504 5.17567 14.5701 4.26735C14.1433 3.77053 13.5208 3.21455 12.6709 2.83958C13.0365 2.76382 13.5364 2.69314 14.0961 2.7056ZM6.16169 13.4077C5.76955 13.8792 5.49878 13.7888 5.40971 13.7592C4.82948 13.5656 4.15621 12.3392 3.56261 10.3944C3.04895 8.7117 2.7488 7.01957 2.72501 6.54511C2.65005 5.04445 3.01379 3.99864 3.80626 3.43662C5.09594 2.52206 7.21628 3.06947 8.06831 3.3471C8.05606 3.3592 8.04332 3.37051 8.03121 3.38278C6.63306 4.79476 6.66623 7.20715 6.6697 7.35465C6.66956 7.41153 6.67433 7.49211 6.68086 7.60289C6.7049 8.00865 6.74971 8.76378 6.63008 9.61901C6.51894 10.4138 6.76392 11.1916 7.30208 11.7531C7.35732 11.8106 7.41536 11.8654 7.47604 11.9172C7.23649 12.1737 6.71588 12.7411 6.16169 13.4077ZM7.65575 11.4142C7.222 10.9616 7.02502 10.332 7.11521 9.68682C7.24147 8.78347 7.1949 7.99661 7.16982 7.5739C7.16631 7.51474 7.16318 7.46291 7.16139 7.42202C7.36563 7.2409 8.31217 6.73381 8.98711 6.88846C9.2952 6.95897 9.48289 7.16872 9.56085 7.52952C9.96475 9.39737 9.61431 10.1759 9.33282 10.8015C9.27481 10.9304 9.21995 11.0522 9.17314 11.1782L9.13682 11.2756C9.04495 11.522 8.95955 11.751 8.90652 11.9685C8.44542 11.9672 7.99686 11.7701 7.65575 11.4142V11.4142ZM7.72653 13.9332C7.59188 13.8996 7.47077 13.8411 7.39975 13.7928C7.45909 13.7648 7.56469 13.7268 7.74787 13.6891C8.63433 13.5066 8.77125 13.3777 9.07015 12.9982C9.13875 12.9111 9.21645 12.8125 9.32399 12.6924L9.32416 12.6922C9.48438 12.5127 9.5577 12.5432 9.69061 12.5984C9.79841 12.6429 9.90332 12.7779 9.94585 12.9265C9.96597 12.9968 9.98855 13.1299 9.91461 13.2336C9.29012 14.108 8.38007 14.0968 7.72653 13.9332ZM12.3657 18.2503C11.2813 18.4826 10.8972 17.9292 10.6443 17.2968C10.481 16.8883 10.4007 15.0469 10.4576 13.0133C10.4583 12.9863 10.4545 12.9601 10.447 12.9355C10.4404 12.887 10.4302 12.8389 10.4168 12.7918C10.3321 12.4959 10.1257 12.2485 9.87812 12.1457C9.77977 12.1051 9.59926 12.0303 9.38226 12.0858C9.42855 11.8951 9.50879 11.6799 9.59576 11.4468L9.63225 11.3487C9.67337 11.2383 9.72491 11.1237 9.77942 11.0025C10.074 10.3479 10.4776 9.45136 10.0396 7.42603C9.87559 6.66741 9.32784 6.29694 8.49739 6.38298C7.99956 6.4345 7.54408 6.63537 7.31692 6.75055C7.26808 6.77526 7.2234 6.79919 7.18167 6.82245C7.24506 6.05812 7.4846 4.62965 8.38067 3.72586C8.94494 3.15693 9.6963 2.87594 10.6117 2.8911C12.4156 2.92057 13.5724 3.8463 14.2252 4.61776C14.7878 5.28249 15.0923 5.95211 15.2139 6.31329C14.2997 6.22029 13.6779 6.40074 13.3627 6.85137C12.677 7.8316 13.7378 9.73407 14.2477 10.6484C14.3412 10.816 14.4219 10.9608 14.4473 11.0223C14.6134 11.4247 14.8283 11.6934 14.9852 11.8895C15.0333 11.9496 15.08 12.0078 15.1154 12.0587C14.8386 12.1386 14.3412 12.323 14.3866 13.2449C14.35 13.7075 14.09 15.8733 13.958 16.6385C13.7836 17.6495 13.4116 18.026 12.3657 18.2503ZM16.8922 13.0703C16.6091 13.2017 16.1352 13.3002 15.6851 13.3214C15.188 13.3447 14.9348 13.2657 14.8753 13.2172C14.8474 12.6427 15.0613 12.5826 15.2875 12.5191C15.3231 12.5091 15.3578 12.4993 15.3913 12.4876C15.4121 12.5046 15.4349 12.5214 15.4599 12.5379C15.8595 12.8016 16.5721 12.83 17.5784 12.6224L17.5894 12.6202C17.4537 12.747 17.2215 12.9173 16.8922 13.0703Z" fill="white"/>
</svg>
