<svg width="21" height="21" viewBox="0 0 21 21" fill="none" xmlns="http://www.w3.org/2000/svg">
<g clip-path="url(#clip0_1_670)">
<path d="M10.3992 0.0820312C5.08094 0.0820316 5.41304 2.38836 5.41304 2.38836L5.41897 4.77768H10.4941V5.49507H3.40316C3.40316 5.49507 0 5.10913 0 10.4753C-3.79312e-07 15.8415 2.97036 15.6512 2.97036 15.6512H4.74308V13.1611C4.74308 13.1611 4.64753 10.1907 7.66601 10.1907H12.6996C12.6996 10.1907 15.5277 10.2364 15.5277 7.45753V2.86266C15.5277 2.86266 15.957 0.0820312 10.3992 0.0820312ZM7.60079 1.68875C8.10573 1.68875 8.51383 2.09686 8.51383 2.60179C8.51383 3.10673 8.10573 3.51484 7.60079 3.51484C7.09585 3.51484 6.68775 3.10673 6.68775 2.60179C6.68775 2.09686 7.09585 1.68875 7.60079 1.68875Z" fill="url(#paint0_linear_1_670)"/>
<path d="M10.5503 20.9224C15.8685 20.9224 15.5364 18.6161 15.5364 18.6161L15.5305 16.2268H10.4554V15.5094H17.5463C17.5463 15.5094 20.9495 15.8953 20.9495 10.5291C20.9495 5.16296 17.9791 5.35325 17.9791 5.35325H16.2064V7.84337C16.2064 7.84337 16.3019 10.8137 13.2835 10.8137H8.24986C8.24986 10.8137 5.4218 10.768 5.4218 13.5469V18.1418C5.4218 18.1418 4.99242 20.9224 10.5503 20.9224ZM13.3487 19.3157C12.8437 19.3157 12.4356 18.9076 12.4356 18.4027C12.4356 17.8977 12.8437 17.4896 13.3487 17.4896C13.8536 17.4896 14.2617 17.8977 14.2617 18.4027C14.2617 18.9076 13.8536 19.3157 13.3487 19.3157Z" fill="url(#paint1_linear_1_670)"/>
</g>
<defs>
<linearGradient id="paint0_linear_1_670" x1="2.01328" y1="1.95657" x2="12.3951" y2="12.2348" gradientUnits="userSpaceOnUse">
<stop stop-color="#387EB8"/>
<stop offset="1" stop-color="#366994"/>
</linearGradient>
<linearGradient id="paint1_linear_1_670" x1="8.38564" y1="8.5566" x2="19.5346" y2="19.096" gradientUnits="userSpaceOnUse">
<stop stop-color="#FFE052"/>
<stop offset="1" stop-color="#FFC331"/>
</linearGradient>
<clipPath id="clip0_1_670">
<rect width="21" height="21" fill="white"/>
</clipPath>
</defs>
</svg>
