<svg width="21" height="21" viewBox="0 0 21 21" fill="none" xmlns="http://www.w3.org/2000/svg">
<path d="M12.258 10.4842C12.258 9.54284 11.471 8.77966 10.5 8.77966C9.52911 8.77966 8.74198 9.54284 8.74198 10.4842C8.74198 11.4256 9.52911 12.1888 10.5 12.1888C11.471 12.1888 12.258 11.4256 12.258 10.4842Z" fill="#53C1DE"/>
<path fill-rule="evenodd" clip-rule="evenodd" d="M16.2096 7.31962C16.5809 5.85689 17.0476 3.14441 15.4024 2.22479C13.7651 1.30918 11.6343 3.06365 10.5091 4.11678C9.38728 3.07415 7.19667 1.32718 5.55294 2.24971C3.91618 3.16839 4.42092 5.8359 4.8004 7.30779C3.27358 7.72827 0.65625 8.63389 0.65625 10.4842C0.65625 12.3292 3.27086 13.3145 4.78864 13.7346C4.40775 15.2146 3.92829 17.844 5.56715 18.7606C7.21696 19.683 9.4008 17.9776 10.5363 16.913C11.6687 17.9723 13.779 19.6889 15.4167 18.7697C17.0596 17.8476 16.6317 15.1714 16.2522 13.691C17.7235 13.27 20.3438 12.3062 20.3438 10.4842C20.3438 8.65165 17.7124 7.73868 16.2096 7.31962ZM16.0232 12.9064C15.774 12.1417 15.4376 11.3284 15.0262 10.4882C15.4189 9.66795 15.7422 8.86515 15.9844 8.10527C17.086 8.41494 19.5028 9.12273 19.5028 10.4842C19.5028 11.8584 17.1837 12.5729 16.0232 12.9064ZM14.9953 18.0639C13.7734 18.7497 11.9583 17.1082 11.122 16.3281C11.6768 15.7398 12.2312 15.0558 12.7723 14.2964C13.7241 14.2145 14.6232 14.0806 15.4387 13.8979C15.7058 14.945 16.2226 17.3751 14.9953 18.0639ZM5.98737 18.0542C4.76531 17.371 5.32388 15.0246 5.60409 13.9344C6.41048 14.1073 7.30312 14.2317 8.25719 14.3068C8.80184 15.0499 9.37228 15.733 9.94716 16.3312C9.23689 16.9974 7.21515 18.7405 5.98737 18.0542ZM1.49723 10.4842C1.49723 9.10479 3.89948 8.40218 5.02625 8.09327C5.27265 8.87022 5.59581 9.68257 5.98581 10.504C5.59076 11.3378 5.26298 12.163 5.01431 12.9491C3.93992 12.6509 1.49723 11.8644 1.49723 10.4842ZM5.9743 2.95545C7.20136 2.26679 9.10528 3.94395 9.9198 4.69883C9.34788 5.29433 8.78267 5.97227 8.24273 6.71112C7.3168 6.79433 6.43043 6.92797 5.61559 7.10698C5.30988 5.91984 4.74857 3.64336 5.9743 2.95545ZM13.3739 7.59747C14.0021 7.67434 14.6039 7.77656 15.169 7.90167C14.9994 8.42891 14.7879 8.98021 14.5389 9.54538C14.1779 8.88121 13.7904 8.23043 13.3739 7.59747ZM10.5094 5.28157C10.8973 5.68901 11.2858 6.14401 11.668 6.63762C10.8928 6.6021 10.1163 6.60193 9.34109 6.63711C9.72359 6.14807 10.1154 5.69374 10.5094 5.28157ZM6.46833 9.54478C6.22341 8.98157 6.01386 8.42781 5.84274 7.89306C6.40446 7.77116 7.00348 7.67156 7.62759 7.59595C7.20997 8.22751 6.8231 8.87806 6.46833 9.54478ZM7.64554 13.4306C7.00078 13.3609 6.3927 13.2663 5.83115 13.1478C6.00497 12.6036 6.21914 12.0379 6.46929 11.4626C6.82896 12.1362 7.22169 12.7931 7.64554 13.4306ZM10.5327 15.7444C10.1341 15.3273 9.73648 14.8661 9.34814 14.37C10.1278 14.3997 10.9089 14.3997 11.6884 14.366C11.3051 14.8712 10.918 15.3331 10.5327 15.7444ZM14.5469 11.4333C14.8101 12.0149 15.0319 12.5775 15.2081 13.1125C14.6372 13.2388 14.0209 13.3405 13.3715 13.416C13.7911 12.7711 14.1847 12.1102 14.5469 11.4333ZM12.3029 13.5149C11.1104 13.5975 9.9104 13.5966 8.7175 13.5216C8.03964 12.5616 7.43626 11.5519 6.91539 10.5038C7.43371 9.4578 8.03274 8.45016 8.70739 7.49162C9.9012 7.40411 11.1023 7.40391 12.2961 7.49212C12.9649 8.45061 13.5631 9.45564 14.0934 10.4922C13.5693 11.5377 12.9672 12.5474 12.3029 13.5149ZM14.9824 2.9312C16.2098 3.6176 15.6634 6.05539 15.3953 7.11543C14.5785 6.9327 13.6916 6.79669 12.7629 6.71222C12.2219 5.96534 11.6614 5.28622 11.0988 4.69841C11.9237 3.92727 13.7669 2.25152 14.9824 2.9312Z" fill="#53C1DE"/>
</svg>
