<svg width="21" height="21" viewBox="0 0 21 21" fill="none" xmlns="http://www.w3.org/2000/svg">
<g clip-path="url(#clip0_1_664)">
<path d="M1.64062 0H19.3594C20.2655 0 21 0.734533 21 1.64062V19.3594C21 20.2655 20.2655 21 19.3594 21H1.64062C0.734533 21 0 20.2655 0 19.3594V1.64062C0 0.734533 0.734533 0 1.64062 0Z" fill="#3178C6"/>
<path d="M12.3472 16.4452V18.7109C12.7157 18.8998 13.1515 19.0413 13.6546 19.1358C14.1577 19.2302 14.6879 19.2773 15.2454 19.2773C15.7886 19.2773 16.3048 19.2254 16.7937 19.1216C17.2826 19.0177 17.7114 18.8466 18.0798 18.6083C18.4483 18.3699 18.74 18.0584 18.955 17.6736C19.1699 17.289 19.2773 16.8135 19.2773 16.247C19.2773 15.8364 19.2159 15.4764 19.0931 15.1672C18.9703 14.8581 18.7931 14.5831 18.5616 14.3424C18.3302 14.1017 18.0526 13.8858 17.7291 13.6945C17.4055 13.5034 17.0405 13.3229 16.6342 13.153C16.3366 13.0302 16.0698 12.9111 15.8335 12.7954C15.5973 12.6797 15.3965 12.5618 15.2312 12.4414C15.0659 12.321 14.9383 12.1935 14.8486 12.059C14.7588 11.9245 14.7139 11.7723 14.7139 11.6023C14.7139 11.4466 14.7541 11.3062 14.8344 11.1811C14.9147 11.056 15.0281 10.9486 15.1746 10.859C15.321 10.7692 15.5005 10.6997 15.7131 10.65C15.9256 10.6005 16.1619 10.5757 16.4217 10.5757C16.6107 10.5757 16.8103 10.5899 17.0204 10.6182C17.2307 10.6465 17.4421 10.6901 17.6547 10.7492C17.8672 10.8082 18.0739 10.8825 18.2747 10.9723C18.4754 11.0619 18.6609 11.1658 18.8309 11.2837V9.16675C18.4861 9.03459 18.1093 8.93665 17.7007 8.87291C17.2921 8.80917 16.8232 8.77734 16.2941 8.77734C15.7556 8.77734 15.2454 8.83518 14.7636 8.95084C14.2817 9.06642 13.8577 9.24697 13.4916 9.49241C13.1255 9.73793 12.8362 10.0506 12.6235 10.4306C12.411 10.8106 12.3047 11.2649 12.3047 11.7936C12.3047 12.4685 12.4995 13.0444 12.8893 13.5211C13.2791 13.9978 13.8707 14.4014 14.6643 14.7318C14.9761 14.8593 15.2667 14.9843 15.5359 15.1071C15.8052 15.2298 16.0378 15.3572 16.2339 15.4894C16.43 15.6215 16.5847 15.7655 16.698 15.9213C16.8114 16.0771 16.8681 16.2541 16.8681 16.4524C16.8681 16.5986 16.8326 16.7344 16.7618 16.8595C16.691 16.9845 16.5834 17.0931 16.4394 17.1851C16.2953 17.2772 16.1158 17.3491 15.9009 17.401C15.6859 17.453 15.4343 17.479 15.1462 17.479C14.6549 17.479 14.1684 17.3928 13.6865 17.2205C13.2046 17.0482 12.7582 16.7898 12.3472 16.4452ZM8.57079 10.807H11.4844V8.94141H3.36328V10.807H6.26265V19.1133H8.57079V10.807Z" fill="white"/>
</g>
<defs>
<clipPath id="clip0_1_664">
<rect width="21" height="21" fill="white"/>
</clipPath>
</defs>
</svg>
