<svg width="25" height="16" viewBox="0 0 25 16" fill="none" xmlns="http://www.w3.org/2000/svg">
<path d="M19.2882 9.02556C17.3275 9.02556 16.0259 7.54855 15.6634 6.97628C16.1303 3.35733 17.4868 2.21824 19.2882 2.21824C21.0896 2.21824 22.4462 3.59714 22.4462 5.61918C22.4462 7.64121 21.0677 9.02556 19.2882 9.02556ZM19.2882 0C16.0863 0 14.3014 2.02748 13.7797 4.11492C13.1975 3.05212 12.7691 1.62962 12.4341 0.305212H8.00747V5.65733C8.00747 7.59761 7.09578 9.03101 5.32184 9.03101C3.54789 9.03101 2.52636 7.59761 2.52636 5.65733L2.54833 0.305212H0V5.65733C0 7.22154 0.521749 8.63315 1.47188 9.64689C2.44947 10.6933 3.78405 11.2329 5.32733 11.2329C8.40839 11.2329 10.5558 8.93836 10.5558 5.65733V2.06018C10.8743 3.24288 11.6432 5.51562 13.1041 7.5104L11.7366 15.0862H14.3289L15.2296 9.72319C15.5261 9.963 15.8392 10.181 16.1742 10.3663C17.042 10.9004 18.0415 11.1948 19.063 11.2275C19.063 11.2275 19.2223 11.2329 19.3047 11.2329C22.4791 11.2329 25 8.84571 25 5.62463C25 2.40355 22.4627 0 19.2882 0Z" fill="#73BB44"/>
</svg>
